<?xml version="1.0" encoding="UTF-8" standalone="no"?>
<svg width="89px" height="81px" viewBox="0 0 89 81" version="1.1" xmlns="http://www.w3.org/2000/svg" xmlns:xlink="http://www.w3.org/1999/xlink">
    <!-- Generator: Sketch 39.1 (31720) - http://www.bohemiancoding.com/sketch -->
    <title>Fill 1</title>
    <desc>Created with Sketch.</desc>
    <defs></defs>
    <g id="Page-2" stroke="none" stroke-width="1" fill="none" fill-rule="evenodd">
        <g id="iPhone-6-Copy" transform="translate(-30.000000, -447.000000)" fill="#3CAF33">
            <g id="处理中">
                <g id="表单内容" transform="translate(0.000000, 128.000000)">
                    <g id="Page-1" transform="translate(0.000000, 276.000000)">
                        <path d="M61.1273822,95.0387784 C60.415045,95.4700486 59.4791435,95.1832649 59.1262627,94.4258054 L49.7562887,73.8014541 C49.4801211,73.1797243 49.6861509,72.4397784 50.2538288,72.065427 C50.7250673,71.7589405 51.3278142,71.7479946 51.78371,72.0566703 L63.2095987,79.4889676 C63.6172747,79.7494811 64.1279657,79.7866973 64.5597516,79.5852919 L110.041934,58.3589135 C101.951975,49.0351568 88.9896299,42.9995622 74.368087,42.9995622 C49.8746463,43.0039405 29.9993425,59.9745351 29.9993425,80.9119405 C29.9993425,93.2830486 36.9473699,104.2684 47.6828395,111.188427 L44.4060884,121.503886 C44.0663583,122.707941 45.3156882,123.752184 46.4510441,123.204886 L57.8462475,116.098778 C62.9553491,117.854508 68.5313055,118.82213 74.379046,118.82213 C98.8922129,118.82213 118.754366,101.853724 118.754366,80.9163189 C118.763133,74.495427 116.89133,68.4532649 113.592661,63.1598054 L61.1273822,95.0387784 Z" id="Fill-1"></path>
                    </g>
                </g>
            </g>
        </g>
    </g>
</svg>